<svg id="Layer_1" xmlns="http://www.w3.org/2000/svg" viewBox="0 0 512 512"><style>.st0{fill:#010101}</style><path class="st0" d="M420.1 510.9c-3.4 0-341.2-29.8-340.8-339.9 0-7.2 5.9-13.1 13.1-13.1 7.2 0 13.1 5.9 13.1 13.1 0 251.8 244.3 303.8 302.6 312.8V171c0-7.2 5.9-13.1 13.1-13.1 7.2 0 13.1 5.9 13.1 13.1v341l-14.2-1.1z"/><path class="st0" d="M420.3 507.8c-3.4 0-338.4-29.8-338.1-337 0-5.6 4.5-10.1 10.1-10.1s10.1 4.5 10.1 10.1c0 258.1 252.2 308.3 308.5 316.2V171c0-5.6 4.5-10.1 10.1-10.1s10.1 4.5 10.1 10.1v337.8l-10.8-1z"/><path class="st0" d="M420.3 509.1c-3.4 0-339.6-29.8-339.2-338.2 0-6.3 5.1-11.3 11.3-11.3s11.3 5.1 11.3 11.3c0 255.1 247.5 306.3 306.2 314.8V171c0-6.3 5.1-11.3 11.3-11.3 6.3 0 11.3 5.1 11.3 11.3v339.1l-12.2-1z"/><path class="st0" d="M420.5 506.2c-3.4 0-336.8-29.8-336.5-335.2 0-4.6 3.7-8.3 8.3-8.3 4.6 0 8.3 3.7 8.3 8.3 0 262.1 258.3 311 312.1 318.3V171c0-4.6 3.7-8.3 8.3-8.3 4.6 0 8.3 3.7 8.3 8.3v335.9l-8.8-.7z"/><path class="st0" d="M420.1 510.3c-3.4 0-340.6-29.8-340.3-339.6 0-6.9 5.6-12.5 12.5-12.5s12.5 5.6 12.5 12.5c0 252.9 245.5 304.7 303.8 313.5V171c0-6.9 5.6-12.5 12.5-12.5s12.5 5.6 12.5 12.5v340.4l-13.5-1.1z"/><path class="st0" d="M420.4 507.3c-3.4 0-337.9-29.8-337.6-336.4 0-5.3 4.3-9.5 9.5-9.5 5.3 0 9.5 4.3 9.5 9.5 0 259.3 253.3 309.1 309.8 316.9V171c0-5.3 4.3-9.5 9.5-9.5 5.3 0 9.5 4.3 9.5 9.5v337.1l-10.2-.8z"/><path class="st0" d="M420.3 508.5c-3.4 0-338.9-29.8-338.6-337.6 0-5.9 4.8-10.7 10.7-10.7 5.9 0 10.7 4.8 10.7 10.7 0 256.2 248.5 307.1 307.4 315.8V170.9c0-5.9 4.8-10.7 10.7-10.7 5.9 0 10.7 4.8 10.7 10.7v338.5l-11.6-.9z"/><path class="st0" d="M429.1 506.2l-8.4-.7c-3.3 0-336.2-29.8-335.9-334.6.1-4.2 3.6-7.5 7.7-7.4 4.2-.1 7.6 3.2 7.7 7.4 0 264.5 262.7 312.2 313.3 318.9V171c0-4.3 3.5-7.7 7.8-7.7s7.7 3.5 7.7 7.7l.1 335.2z"/><path class="st0" d="M416.7 477.2c-2 0-4.1-.3-6-1.1-114.3-45.6-99.1-131.9-98.9-132.7 1.5-6.5 7.4-11 14.1-10.8h2.3c3.8.5 7.2 2.5 9.5 5.5 2.1 2.8 3 6.3 2.3 9.8-.5 2.7-11.3 66.7 82.2 104 3.5 1.4 6.3 4.1 7.7 7.6 1.3 3.3 1.1 7.1-.7 10.2-2.5 4.6-7.3 7.4-12.5 7.5z"/><path class="st0" d="M416.7 474.2c-1.6 0-3.1-.3-4.6-.9-112.4-44.8-97.2-128.6-97.1-129.4 1.2-5.1 5.9-8.6 11.1-8.4h1.8c3 .4 5.7 2 7.6 4.3 1.6 2.1 2.3 4.8 1.8 7.4-.5 2.8-11.9 69.2 83.9 107.2 2.7 1.1 4.9 3.2 6 6 1 2.5.8 5.4-.5 7.8-1.9 3.8-5.8 6-10 6z"/><path class="st0" d="M416.7 475.5c-1.7 0-3.4-.3-5-1-113.2-45.2-97.9-129.9-97.8-131.1 1.2-5.7 6.4-9.7 12.3-9.4h2c3.3.4 6.3 2.1 8.3 4.8 1.8 2.4 2.6 5.4 2 8.4-.5 2.7-11.6 68.2 83.4 106 3.1 1.3 5.4 3.8 6.6 6.9 1.1 2.9.9 6.1-.5 8.8-2.3 4.1-6.7 6.6-11.3 6.6z"/><path class="st0" d="M416.7 472.5c-1.3 0-2.7-.2-3.9-.7-111.3-44.4-96.2-126.7-96-127.4 1.1-4.2 5-7.2 9.4-7h1.5c2.5.3 4.8 1.6 6.4 3.6 1.3 1.7 1.8 3.9 1.5 6-.5 2.9-11.9 70.6 85.1 109.3 2.3.9 4.1 2.7 5.1 4.9.8 2.1.6 4.4-.4 6.3-1.9 3.1-5.2 5-8.7 5z"/><path class="st0" d="M416.7 475.5c-1.7 0-3.4-.3-5-1-113.9-45.4-98-130.1-97.8-131.1 1.2-5.7 6.4-9.7 12.3-9.4h2c3.3.4 6.3 2.1 8.3 4.8 1.9 2.4 2.6 5.5 2 8.5-.5 2.7-11.6 68.1 83.4 105.9 3.1 1.3 5.5 3.7 6.6 6.9 1.2 2.9 1 6.2-.5 8.9-2.3 4.1-6.7 6.6-11.3 6.5z"/><path class="st0" d="M416.7 472.6c-1.3 0-2.6-.2-3.9-.7-111.3-44.4-96.2-126.7-96-127.6 1-4.3 5-7.2 9.4-7h1.5c2.5.3 4.8 1.6 6.4 3.6 1.3 1.7 1.8 3.9 1.5 6-.5 2.9-11.9 70.5 85 109.2 2.3.9 4.2 2.7 5.1 4.9.8 2.1.7 4.5-.4 6.4-1.7 3.2-5 5.2-8.6 5.2z"/><path class="st0" d="M416.7 473.8c-1.5 0-3-.3-4.3-.8-112.2-44.7-96.9-128.1-96.8-128.9 1.2-4.8 5.6-8.2 10.5-8h1.7c2.8.4 5.4 1.9 7.1 4.1 1.6 2 2.2 4.6 1.7 7.1-.5 2.8-11.9 69.5 84.3 107.8 2.8 1 4.9 3.2 6 6 1 2.4.8 5.2-.5 7.4-2 3.4-5.7 5.4-9.7 5.3z"/><path class="st0" d="M416.7 470.8c-1.1 0-2.2-.2-3.2-.6-109.8-43.8-95.3-124.8-95-125.6.9-3.4 4.1-5.8 7.6-5.6h1.3c2 .3 3.9 1.3 5.2 2.9 1.1 1.3 1.5 3.1 1.2 4.8-.5 2.9-11.9 71.9 86.1 111.2 1.9.7 3.4 2.2 4.1 4 .6 1.6.5 3.5-.3 5-1.4 2.5-4.1 4-7 3.9z"/><path class="st0" d="M416.7 476.7c-1.9 0-3.7-.3-5.5-1-114.1-45.5-98.7-131.1-98.6-132.1 1.4-6.2 7.1-10.6 13.5-10.4h2.1c3.6.5 6.9 2.4 9.1 5.2 2.1 2.7 2.9 6.1 2.3 9.4-.5 2.7-11.3 67.2 82.5 104.6 3.4 1.3 6.1 4 7.4 7.3 1.2 3.2 1 6.8-.6 9.8-2.4 4.5-7.1 7.2-12.2 7.2z"/><path class="st0" d="M416.7 473.7c-1.5 0-3-.3-4.3-.8-112-44.7-96.9-128-96.8-128.8 1.2-4.8 5.6-8.2 10.5-8h1.7c2.8.4 5.4 1.8 7.2 4.1 1.5 2 2.1 4.6 1.7 7-.5 2.8-11.9 69.6 84.3 107.9 2.7 1 4.9 3 6 5.7.9 2.4.8 5.1-.5 7.3-2 3.5-5.8 5.7-9.8 5.6z"/><path class="st0" d="M416.7 474.9c-1.7 0-3.3-.3-4.8-.9-113.2-45-97.6-129.3-97.5-130.2 1.4-5.4 6.3-9.1 11.9-8.9h1.9c3.2.4 6 2.1 8 4.6 1.8 2.3 2.5 5.2 1.9 8-.5 2.7-11.6 68.6 83.4 106.5 2.9 1.1 5.3 3.4 6.4 6.3 1.1 2.7.9 5.8-.5 8.4-2.1 4-6.3 6.4-10.7 6.2z"/><path class="st0" d="M416.7 472c-1.3 0-2.5-.2-3.7-.7-110.3-44-95.8-126-95.7-126.8 1-4 4.7-6.7 8.8-6.6h1.5c2.4.3 4.5 1.5 6 3.4 1.3 1.7 1.8 3.9 1.4 6-.5 2.9-11.9 71 85.4 109.9 2.2.8 3.9 2.5 4.8 4.6.8 1.9.6 4.1-.4 6-1.8 2.7-4.9 4.3-8.1 4.2z"/><path class="st0" d="M416.7 475c-1.7 0-3.3-.3-4.8-1-112.3-44.8-97.6-129.4-97.5-130.2 1.3-5.4 6.3-9.2 11.9-9.1h1.9c3.2.4 6.1 2.1 8 4.7 1.7 2.3 2.4 5.1 1.8 7.9-.5 2.7-11.6 68.5 83.4 106.5 3 1.2 5.3 3.5 6.5 6.5 1 2.7.8 5.8-.6 8.3-2 4-6.1 6.5-10.6 6.4z"/><path class="st0" d="M416.7 472c-1.3 0-2.5-.2-3.7-.7-110.4-44-95.9-126.1-95.7-127 1-4 4.7-6.8 8.8-6.6h1.5c2.4.3 4.5 1.6 6 3.5 1.2 1.6 1.7 3.7 1.3 5.7-.5 2.9-11.9 71 85.4 109.8 2.2.8 4 2.6 4.8 4.8.7 2 .6 4.1-.4 6-1.7 2.8-4.7 4.5-8 4.5z"/><path class="st0" d="M416.7 473.3c-1.4 0-2.8-.3-4.1-.8-111.3-44.4-96.7-127.6-96.7-128.4 1.1-4.6 5.3-7.7 9.9-7.6h1.6c2.8.4 5.3 1.8 6.9 4.1 1.4 1.9 1.9 4.3 1.5 6.6-.5 2.8-11.9 69.9 84.7 108.4 2.5 1 4.6 3 5.5 5.5.9 2.3.7 4.8-.5 6.9-1.7 3.2-5.1 5.2-8.8 5.3z"/><path class="st0" d="M416.7 470.2c-1 0-2-.2-3-.6-109-43.4-94.8-124.2-94.6-125.1 1-3.6 4.6-5.8 8.2-5.1 3.5.2 6.2 3.2 6 6.7v.4c-.5 2.9-12.3 72.4 86.4 111.8 3.1 1 4.8 4.4 3.8 7.5-.1.2-.2.5-.3.7-1.3 2.4-3.8 3.8-6.5 3.7z"/><g id="_Group_"><path class="st0" d="M257.1 371.1c-98.2-.1-177.8-79.7-177.9-177.8v-2c-.5-10.2.5-20.4 2.9-30.4 0-1.3-.5-3.7-.8-6-1.6-9.2-2.2-18.5-2-27.8.9-10.2 3.1-20.2 6.5-29.8-1.8-44.8-1-84.7-1-85.1C84.9 5.4 90.7 0 97.5.1c.7 0 1.4.1 2.1.2 27.2 5.1 52.5 17.4 73.3 35.7 52.2-28 114.9-28.2 167.2-.5 20.6-18 45.7-30.2 72.6-35.3 6.7-1.3 13.3 3.1 14.6 9.8.1.7.2 1.4.2 2.1 0 0 .9 38.8-.9 83.4 3.6 11.4 6.4 23 8.3 34.9.9 8.1.4 16.3-1.3 24.3-.8 3.2-1.1 6.5-1 9.8 1.4 9.5 2.2 19.1 2.3 28.7.1 98.3-79.6 177.9-177.8 177.9zM109.5 28.8c0 15.5 0 42.4 1.2 70.2.1 1.7-.2 3.4-.8 4.9-3 8-5 16.3-6 24.8-.1 7.4.5 14.9 1.8 22.2 1.3 5.2 1.5 10.6.4 15.8-1.9 8-2.7 16.2-2.2 24.4v2.1c0 84.5 68.5 152.9 152.9 152.9s152.9-68.5 152.9-152.9c-.2-8.6-.9-17.1-2.1-25.6-.6-5.8-.2-11.7 1.1-17.4 1.3-5.6 1.6-11.3 1.1-17-1.9-11-4.5-21.8-7.7-32.5-.4-1.4-.6-2.8-.5-4.2 1.1-27.4 1.3-53 1.1-67.9-19.6 6.1-37.4 16.8-51.7 31.4-2.4 2.5-5.6 3.9-9.1 3.9-2.3 0-4.5-.6-6.4-1.8-48.8-29.2-109.8-29-158.4.6-5.1 3.1-11.6 2.1-15.6-2.2-14.3-14.8-32.2-25.7-52-31.7z"/><path class="st0" d="M257.1 368.1c-96.6-.1-174.8-78.3-174.9-174.8v-2.1c-.5-10.1.5-20.3 2.9-30.1 0-.7-.5-3.8-.9-6.5-1.5-9-2.2-18.1-2-27.2.9-10 3.1-19.8 6.5-29.3-1.8-44.6-1-85.1-1-85.4.1-5.2 4.5-9.4 9.7-9.2.5 0 1 .1 1.5.2 27.4 5.1 52.8 17.8 73.4 36.6 52.3-28.9 115.7-29.1 168.1-.6C361 21.2 386.2 8.9 413.3 3.9c5.1-1 10.1 2.4 11.1 7.5.1.5.2 1 .2 1.5 0 .4.9 38.7-.9 83.4 3.6 11.3 6.3 22.8 8.1 34.5.8 7.8.4 15.8-1.3 23.5-.9 3.5-1.2 7.1-1 10.7 1.4 9.4 2.1 18.9 2.3 28.4-.2 96.4-78.3 174.6-174.7 174.7zM106.5 24.8c0 15.7 0 44.3 1.2 74.4.1 1.3-.1 2.6-.6 3.8-3 8.3-5 16.9-6 25.6-.1 7.7.5 15.4 1.8 22.9 1.2 4.7 1.4 9.6.5 14.4-1.9 8.3-2.7 16.8-2.1 25.3v2.1c0 86.1 69.9 155.9 156 155.9s155.8-69.8 155.9-155.9c-.2-8.7-.9-17.4-2.1-26-.5-5.5-.1-11.1 1.1-16.5 1.3-5.9 1.7-11.9 1.1-17.9-2-11.1-4.6-22.2-8-32.9-.3-1-.5-2.1-.4-3.2 1.3-29.8 1.3-57 1.1-72-21.6 5.7-41.2 17.2-56.9 33.1-1.8 1.9-4.3 3-6.9 3-1.7 0-3.4-.5-4.9-1.4-49.7-29.8-111.9-29.6-161.5.6-3.9 2.4-8.9 1.7-11.9-1.7-15.7-16.2-35.6-27.8-57.4-33.6z"/><path class="st0" d="M257.1 369.3c-97.2-.1-176-78.9-176.1-176.1v-2.1c-.5-10 .5-20 2.9-29.8 0-1.5-.5-4.2-.8-6.5-1.5-9.1-2.2-18.2-2-27.4.9-10 3.1-19.9 6.5-29.4-1.8-44.6-1-84.9-1-85.3.1-5.8 4.9-10.4 10.7-10.4.7-.1 1.4-.1 2.1 0C126.8 7.4 152.3 20 173 38.6c52.2-28.5 115.3-28.7 167.8-.6 20.6-18.3 45.7-30.7 72.7-35.7.7-.1 1.4-.1 2.1 0 5.8 0 10.5 4.6 10.7 10.4 0 .4.9 38.4-.9 83.4 3.5 11.4 6.2 23 8 34.8.8 8 .4 16-1.3 23.8-.8 3.4-1.2 6.9-1 10.4 1.4 9.4 2.2 18.9 2.3 28.5-.4 97.2-79.2 175.7-176.3 175.7zM107.7 26.4c0 16 0 43.7 1.2 72.7 0 1.4-.2 2.9-.7 4.2-3 8.1-5 16.6-6 25.3-.1 7.6.5 15.2 1.8 22.7 1.2 4.9 1.4 10 .5 14.9-2 8.1-2.7 16.5-2.3 24.9v2.1c-4.1 85.5 61.8 158.1 147.3 162.2s158.1-61.8 162.2-147.3c.2-5 .2-9.9 0-14.9-.2-8.6-.9-17.3-2.1-25.8-.5-5.6-.2-11.3 1.1-16.9 1.3-5.7 1.7-11.7 1.1-17.5-1.9-11.1-4.5-22-7.8-32.8-.4-1.2-.5-2.4-.5-3.6 1.2-28.7 1.3-55.1 1.1-70.3-20.8 5.8-39.7 16.9-54.9 32.3-3.4 3.6-8.9 4.4-13.2 1.8-49.3-29.6-110.9-29.4-160 .4-4.3 2.7-9.9 1.9-13.4-1.8-15.3-15.5-34.4-26.8-55.4-32.6z"/><path id="_Compound_Path_" class="st0" d="M257.1 366.3c-95.3-.3-172.5-77.5-172.8-172.8v-2.1c-.5-10 .5-20.1 2.9-29.8 0-1.4-.5-4.9-.9-7.7-1.4-8.7-2.1-17.5-1.9-26.3.9-9.9 3.1-19.7 6.5-29.1-2.1-44.6-1.4-85.3-1.4-85.7.1-4.2 3.6-7.6 7.8-7.5.4 0 .9.1 1.3.1 27.5 5.1 53.1 17.9 73.5 37.1 52.3-29.4 116.2-29.7 168.7-.6 20.4-18.8 45.6-31.4 72.9-36.5 4.1-.9 8.2 1.7 9.2 5.8.1.5.2 1 .2 1.5 0 .4.9 39-.9 83.4 3.5 11.4 6.2 23 8.1 34.7.8 7.7.4 15.4-1.3 23-.9 3.7-1.2 7.5-1 11.3 1.4 9.3 2.1 18.7 2.3 28.1 0 95.7-77.6 173.2-173.2 173.1zM105.4 102.6c-3.1 8.4-5.1 17.2-6 26.2-.1 7.8.5 15.6 1.8 23.3 1.1 4.4 1.3 9.1.6 13.6-2.1 8.4-2.9 17.1-2.4 25.8v2.1c0 87.1 70.7 157.7 157.8 157.6 87 0 157.6-70.6 157.6-157.6-.2-8.8-.9-17.5-2.1-26.2-.5-5.3-.1-10.7 1.1-16 1.4-6 1.8-12.3 1.1-18.4-1.9-11.3-4.5-22.4-7.9-33.3-.3-.8-.4-1.7-.4-2.6 1.3-31.5 1.3-60.1 1.1-74.4-22.7 5.7-43.4 17.6-59.9 34.3-2.5 2.6-6.4 3.2-9.5 1.3-50.3-30.2-113.2-30-163.3.6-3.1 1.9-7.2 1.3-9.7-1.4-16.5-17-37.4-29.1-60.5-34.8 0 14.8 0 44.9 1.2 76.8 0 1-.1 2.1-.5 3l-.1.1z"/></g><g id="_Group_2"><path class="st0" d="M257.2 256.9c-4.1-.1-7.9-2.3-9.9-6l-20.4-35.1c-3.2-5.5-1.3-12.5 4.2-15.6 1.7-1 3.7-1.5 5.7-1.5 4.1.1 7.9 2.3 9.9 6l10.5 17.9 10.4-17.9c2.6-5.8 9.4-8.3 15.1-5.7s8.3 9.4 5.7 15.1c-.3.6-.6 1.2-1 1.8L267 251.2c-2 3.5-5.7 5.7-9.8 5.7z"/><path class="st0" d="M257.2 253.9c-3 0-5.8-1.6-7.3-4.2l-20.4-35.3c-2.3-4.1-.9-9.3 3.2-11.7 4.1-2.3 9.3-.9 11.7 3.2l13 22.6 13-22.6c2.3-4 7.5-5.4 11.6-3.1 4 2.3 5.4 7.5 3.1 11.6l-20.4 35.3c-1.5 2.7-4.4 4.3-7.5 4.2z"/><path class="st0" d="M257.2 255.1c-3.4 0-6.6-1.8-8.3-4.8L228.5 215c-2.9-4.5-1.7-10.4 2.8-13.4 4.5-2.9 10.4-1.7 13.4 2.8.2.3.4.6.5.9l11.9 20.8 11.9-20.8c2.4-4.8 8.2-6.7 13-4.3 4.8 2.4 6.7 8.2 4.3 13-.2.3-.3.6-.5.9l-20.4 35.3c-1.8 3-4.9 4.8-8.2 4.9z"/><path class="st0" d="M257.2 252.1c-2.4.1-4.7-1.2-6-3.3l-20.4-35.3c-1.8-3.2-.7-7.3 2.4-9.1 3.2-1.8 7.3-.7 9.1 2.4l14.6 25.3 14.6-25.3c1.8-3.2 5.9-4.3 9.1-2.4 3.2 1.8 4.3 5.9 2.4 9.1l-20.4 35.3c-1 2-3.1 3.3-5.4 3.3z"/><path class="st0" d="M257.2 255.7c-3.7 0-7-2-8.9-5.1l-20.4-35.3c-2.8-4.9-1.1-11.2 3.8-14.1 4.9-2.8 11.2-1.1 14.1 3.8l11.5 19.9 11.5-19.9c2.8-4.9 9.1-6.6 14.1-3.8 4.9 2.8 6.6 9.1 3.8 14.1l-20.4 35.3c-1.9 3.2-5.4 5.2-9.1 5.1z"/><path class="st0" d="M257.2 252.7c-2.6 0-5-1.4-6.3-3.6l-20.4-35.3c-1.8-3.6-.4-8 3.1-9.8 3.3-1.7 7.4-.6 9.5 2.5l14.1 24.4 14.1-24.4c2.2-3.4 6.7-4.4 10-2.2 3.2 2 4.2 6.1 2.5 9.5l-20.4 35.3c-1.3 2.2-3.6 3.6-6.2 3.6z"/><path class="st0" d="M257.2 253.9c-3 0-5.8-1.6-7.3-4.2l-20.4-35.3c-2.4-4-1-9.2 3-11.6 4-2.3 9.2-1 11.6 3.1l13 22.6 13-22.6c2.3-4 7.5-5.4 11.6-3.1 4 2.3 5.4 7.5 3.1 11.6l-20.4 35.3c-1.5 2.6-4.2 4.2-7.2 4.2z"/><path id="_Path_" class="st0" d="M257.2 250.9c-2 0-3.8-1-4.8-2.7L232 212.9c-1.7-2.5-1-5.9 1.6-7.6 2.5-1.7 5.9-1 7.6 1.6.1.2.2.4.3.5l15.6 27 15.6-27c1.7-2.5 5.1-3.2 7.6-1.6 2.3 1.5 3.1 4.6 1.9 7l-20.4 35.3c-.9 1.8-2.7 2.8-4.6 2.8z"/></g><path class="st0" d="M174.4 237.6c-53.2 0-96.3-43.1-96.3-96.3C78 88.1 121.2 45 174.4 45s96.3 43.1 96.3 96.3c-.1 53.2-43.1 96.3-96.3 96.3zm0-165.3c-38.1 0-69 30.9-69 69s30.9 69 69 69 69-30.9 69-69-30.9-69-69-69z"/><path class="st0" d="M174.4 234.7c-51.6 0-93.4-41.8-93.4-93.4C81 89.8 122.8 48 174.4 48s93.4 41.8 93.4 93.4c-.1 51.4-41.9 93.2-93.4 93.3zm0-165.4c-39.8 0-72 32.2-72 72s32.2 72 72 72 72-32.2 72-72c-.1-39.7-32.3-72-72-72z"/><path class="st0" d="M174.4 235.9c-52.2 0-94.5-42.3-94.5-94.5s42.3-94.5 94.5-94.5 94.5 42.3 94.5 94.5c0 52.1-42.3 94.4-94.5 94.5zm0-165.4c-39.1 0-70.8 31.7-70.8 70.8s31.7 70.8 70.8 70.8 70.8-31.7 70.8-70.8c-.1-39.1-31.7-70.8-70.8-70.8z"/><path class="st0" d="M174.4 232.9c-50.6 0-91.6-41-91.6-91.6s41-91.6 91.6-91.6c50.6 0 91.6 41 91.6 91.6-.1 50.6-41.1 91.5-91.6 91.6zm0-165.4c-40.8 0-73.8 33-73.8 73.8s33 73.8 73.8 73.8 73.8-33 73.8-73.8c-.1-40.7-33.1-73.7-73.8-73.8z"/><path class="st0" d="M174.4 236.5c-52.6 0-95.3-42.7-95.3-95.3s42.7-95.3 95.3-95.3 95.3 42.7 95.3 95.3-42.7 95.3-95.3 95.3zm0-165.4c-38.8-.1-70.3 31.2-70.5 70-.1 38.8 31.2 70.3 70 70.5s70.3-31.2 70.5-70v-.2c-.1-38.8-31.3-70.1-70-70.3z"/><path class="st0" d="M174.4 233.7c-50.9 0-92.2-41.3-92.2-92.2 0-50.9 41.3-92.2 92.2-92.2 50.8 0 92 41.1 92.2 91.9.1 50.9-41.1 92.3-92 92.4-.1.1-.2.1-.2.1zm0-165.4c-40.4 0-73.2 32.8-73.2 73.2s32.8 73.2 73.2 73.2c40.4 0 73.2-32.8 73.2-73.2v-.2c-.1-40.4-32.8-73.2-73.2-73.2v.2z"/><path class="st0" d="M174.4 234.7c-51.6 0-93.4-41.8-93.4-93.4C81 89.8 122.8 48 174.4 48s93.4 41.8 93.4 93.4c-.1 51.4-41.9 93.2-93.4 93.3zm0-165.4c-39.8 0-72 32.2-72 72s32.2 72 72 72 72-32.2 72-72c-.1-39.7-32.3-72-72-72z"/><path id="_Compound_Path_2" class="st0" d="M174.4 231.7c-49.9 0-90.4-40.5-90.4-90.4 0-49.9 40.5-90.4 90.4-90.4s90.4 40.5 90.4 90.4c-.1 49.9-40.5 90.4-90.4 90.4zm0-165.4c-41.4 0-75 33.6-75 75s33.6 75 75 75 75-33.6 75-75c-.1-41.4-33.6-74.9-75-75z"/><path class="st0" d="M174.4 181.3c-22 .1-40-17.7-40.1-39.7 0-5.2 1-10.3 2.9-15.1l4.2-10.4 6.3 9.3c2.5 2.2 6.3 2.1 8.5-.4s2.1-6.3-.4-8.5l-9.8-5.4 9.9-5.2c5.7-3 12-4.5 18.3-4.5 22.1.9 39.3 19.4 38.4 41.5-.8 20.9-17.5 37.6-38.4 38.4h.2z"/><path class="st0" d="M174.4 178.3c-20.4 0-36.9-16.5-37-36.9 0-4.8.9-9.5 2.7-13.9l2.1-5.2 3.2 4.6c2.8 4.2 8.5 5.4 12.7 2.6 4.2-2.8 5.4-8.5 2.6-12.7-.9-1.3-2-2.4-3.4-3.1l-4.9-2.7 5.1-2.5c5.2-2.7 11.1-4.2 17-4.2 20.4.8 36.3 18 35.5 38.5-.9 19.4-16.4 34.8-35.6 35.5z"/><path class="st0" d="M174.4 179.5c-21.1 0-38.1-17-38.2-38.1 0-4.9.9-9.8 2.8-14.3l2.9-7.3 4.4 6.7c2.9 3.3 8 3.6 11.3.7 3.3-2.9 3.6-8 .7-11.3-.5-.5-1-1-1.6-1.4l-6.9-3.8 7-3.6c5.4-2.8 11.4-4.3 17.5-4.3 21.1.8 37.5 18.6 36.7 39.7-.8 19.9-16.7 35.9-36.7 36.7l.1.3z"/><path class="st0" d="M174.4 176.5c-19.4 0-35.2-15.7-35.2-35.1 0-4.5.9-9 2.6-13.2l.8-2.1 1.3 1.8c3.4 5 10.2 6.4 15.2 3 5-3.4 6.4-10.2 3-15.2-1-1.5-2.3-2.7-3.8-3.5l-2-1.1 2-1c5-2.6 10.5-3.9 16.1-3.9 19.4.8 34.5 17.2 33.7 36.6-.7 18.3-15.4 33-33.7 33.7z"/><path class="st0" d="M174.4 180.1c-21.4-.1-38.7-17.5-38.6-38.9 0-4.9 1-9.8 2.8-14.4l3.4-8.3 5 7.4c2.3 3.4 6.9 4.3 10.2 2 3.4-2.3 4.3-6.9 2-10.2-.7-1-1.6-1.8-2.6-2.4l-7.9-4.3 7.9-4.1c5.5-2.9 11.7-4.4 17.9-4.3 21.4 1.2 37.8 19.5 36.6 40.9-1.1 19.7-16.8 35.5-36.6 36.6h-.1z"/><path class="st0" d="M174.4 177.1c-19.7 0-35.8-16-35.8-35.7 0-4.6.9-9.2 2.6-13.5l1.3-3.1 1.9 2.8c3.2 4.7 9.7 6 14.4 2.8 4.7-3.2 6-9.7 2.8-14.4-.9-1.4-2.1-2.5-3.6-3.3l-3-1.6 3-1.5c5.1-2.6 10.7-4 16.4-4 19.7 0 35.7 16 35.7 35.7s-16 35.8-35.7 35.8z"/><path class="st0" d="M174.4 178.3c-20.4 0-36.9-16.5-37-36.9 0-4.8.9-9.5 2.7-13.9l2.1-5.2 3.2 4.6c2.8 4.2 8.5 5.4 12.7 2.6 4.2-2.8 5.4-8.5 2.6-12.7-.9-1.3-2-2.4-3.4-3.1l-4.9-2.7 5.1-2.5c5.2-2.7 11.1-4.2 17-4.2 20.4.8 36.3 18 35.5 38.5-.9 19.4-16.4 34.8-35.6 35.5z"/><path id="_Path_2" class="st0" d="M174.4 107.4c-5.4 0-10.8 1.3-15.6 3.8 5.6 3.5 7.3 10.8 3.9 16.4-3.5 5.6-10.8 7.3-16.4 3.9-1.2-.7-2.3-1.7-3.1-2.8-7 17.4 1.4 37.2 18.8 44.2s37.2-1.4 44.2-18.8c7-17.4-1.4-37.2-18.8-44.2-4-1.6-8.3-2.5-12.7-2.5h-.3z"/><path class="st0" d="M339.7 237.6c-53.2 0-96.3-43.1-96.3-96.3 0-53.2 43.1-96.3 96.3-96.3S436 88.1 436 141.3c0 53.2-43.1 96.3-96.3 96.3zm0-165.3c-38.1 0-69 31-69 69.1 0 38.1 31 69 69.1 69 38.1 0 69-30.9 69-69-.1-38.2-31-69.1-69.1-69.1z"/><path class="st0" d="M339.7 234.7c-51.6 0-93.4-41.8-93.4-93.4 0-51.6 41.8-93.4 93.4-93.4s93.4 41.8 93.4 93.4c-.1 51.5-41.9 93.3-93.4 93.4zm0-165.4c-39.8 0-72 32.3-72 72.1s32.3 72 72.1 72 72-32.3 72-72c-.1-39.9-32.3-72.1-72.1-72.1z"/><path class="st0" d="M339.7 235.9c-52.2 0-94.5-42.3-94.5-94.5s42.3-94.5 94.5-94.5 94.5 42.3 94.5 94.5c0 52.1-42.3 94.4-94.5 94.5zm0-165.4c-39.1 0-70.8 31.8-70.8 70.9s31.8 70.8 70.9 70.8c39.1 0 70.8-31.7 70.8-70.8-.1-39.2-31.8-70.9-70.9-70.9z"/><path class="st0" d="M339.7 232.9c-50.6 0-91.6-41-91.6-91.6s41-91.6 91.6-91.6c50.6 0 91.6 41 91.6 91.6-.1 50.6-41 91.5-91.6 91.6zm0-165.4c-40.8 0-73.8 33.1-73.8 73.9s33.1 73.8 73.9 73.8c40.7 0 73.8-33.1 73.8-73.8-.1-40.9-33.1-73.9-73.9-73.9z"/><path class="st0" d="M339.7 236.5c-52.6 0-95.3-42.7-95.3-95.3s42.7-95.3 95.3-95.3S435 88.5 435 141.1s-42.6 95.4-95.3 95.4zm0-165.4c-38.8 0-70.2 31.5-70.2 70.3s31.5 70.2 70.3 70.2 70.2-31.5 70.2-70.2c-.1-38.9-31.5-70.3-70.3-70.3z"/><path class="st0" d="M339.7 233.7c-50.9 0-92.2-41.3-92.2-92.2s41.3-92.2 92.2-92.2 92.2 41.3 92.2 92.2c-.1 50.9-41.3 92.2-92.2 92.2zm0-165.4c-40.4 0-73.2 32.8-73.2 73.3 0 40.4 32.8 73.2 73.3 73.2 40.4 0 73.2-32.8 73.2-73.3v-.2c-.1-40.4-32.8-73.2-73.3-73.2v.2z"/><path class="st0" d="M339.7 234.7c-51.6 0-93.4-41.8-93.4-93.4 0-51.6 41.8-93.4 93.4-93.4s93.4 41.8 93.4 93.4c-.1 51.5-41.9 93.3-93.4 93.4zm0-165.4c-39.8 0-72 32.3-72 72.1s32.3 72 72.1 72 72-32.3 72-72c-.1-39.9-32.3-72.1-72.1-72.1z"/><path id="_Compound_Path_3" class="st0" d="M339.7 231.7c-49.9 0-90.4-40.5-90.4-90.4 0-49.9 40.5-90.4 90.4-90.4s90.4 40.5 90.4 90.4c0 49.9-40.5 90.4-90.4 90.4zm0-165.4c-41.4 0-75 33.6-74.9 75.1 0 41.4 33.6 75 75.1 74.9 41.4 0 74.9-33.6 74.9-75-.1-41.4-33.7-75-75.1-75z"/><path class="st0" d="M339.7 181.3c-22.1.9-40.6-16.3-41.5-38.4-.9-22.1 16.3-40.6 38.4-41.5h3.1c6.4 0 12.7 1.5 18.3 4.5l9.9 5.1-9.8 5.4c-2.5 2.2-2.6 6-.4 8.5s6 2.6 8.5.4l6.3-9.3 4.2 10.4c8.3 20.4-1.5 43.7-21.9 52-4.8 1.9-9.9 2.9-15.1 2.9z"/><path class="st0" d="M339.7 178.3c-20.4.8-37.6-15.1-38.5-35.5s15.1-37.6 35.5-38.5h3c5.9 0 11.7 1.4 17 4.2l4.9 2.6-4.9 2.7c-4.5 2.3-6.2 7.9-3.9 12.4 2.3 4.5 7.9 6.2 12.4 3.9 1.4-.7 2.6-1.8 3.4-3.1l3.2-4.6 2.1 5.2c7.7 18.9-1.4 40.4-20.3 48.1-4.5 1.7-9.2 2.6-13.9 2.6z"/><path class="st0" d="M339.7 179.5c-21.1-.8-37.5-18.6-36.7-39.7.8-19.9 16.7-35.9 36.7-36.7 6.1 0 12.1 1.5 17.5 4.3l7 3.6-6.6 3.5c-3.8 2.2-5.1 7.1-2.8 10.9 2.2 3.8 7.1 5.1 10.9 2.8.8-.5 1.5-1.1 2.1-1.8l4.4-6.5 2.9 7.3c7.8 19.6-1.7 41.7-21.3 49.5-4.4 1.9-9.2 2.8-14.1 2.8z"/><path class="st0" d="M339.7 176.5c-19.4-.8-34.5-17.2-33.7-36.6.8-18.3 15.4-33 33.7-33.7 5.6 0 11.2 1.3 16.1 3.9l2 1-2 1.1c-5.3 2.9-7.3 9.6-4.4 14.9 2.9 5.3 9.6 7.3 14.9 4.4 1.5-.8 2.9-2 3.8-3.5l1.3-1.8.8 2.1c7.3 18-1.4 38.5-19.3 45.8-4.2 1.5-8.7 2.4-13.2 2.4z"/><path class="st0" d="M339.7 180.1c-21.4 1.2-39.7-15.2-40.9-36.6-1.2-21.4 15.2-39.7 36.6-40.9 1.4-.1 2.9-.1 4.3 0 6.2 0 12.4 1.5 17.9 4.3l7.9 4.1-7.9 4.3c-3.6 2-4.8 6.5-2.8 10.1 2 3.6 6.5 4.8 10.1 2.8 1-.6 1.9-1.3 2.5-2.3l5-7.4 3.3 8.3c8 19.8-1.6 42.4-21.4 50.4-4.7 2-9.6 2.9-14.6 2.9z"/><path class="st0" d="M339.7 177.1c-19.7 0-35.7-16-35.7-35.7s16-35.7 35.7-35.7c5.7 0 11.4 1.4 16.4 4l3 1.5-3 1.6c-5 2.8-6.8 9.1-4.1 14.1 2.8 5 9.1 6.8 14.1 4.1 1.4-.8 2.7-1.9 3.6-3.3l1.9-2.8 1.3 3.1c7.4 18.3-1.4 39.1-19.7 46.5-4.3 1.7-8.9 2.6-13.5 2.6z"/><path class="st0" d="M339.7 178.3c-20.4.8-37.6-15.1-38.5-35.5s15.1-37.6 35.5-38.5h3c5.9 0 11.7 1.4 17 4.2l4.9 2.6-4.9 2.7c-4.5 2.3-6.2 7.9-3.9 12.4 2.3 4.5 7.9 6.2 12.4 3.9 1.4-.7 2.6-1.8 3.4-3.1l3.2-4.6 2.1 5.2c7.7 18.9-1.4 40.4-20.3 48.1-4.4 1.7-9.1 2.6-13.9 2.6z"/><path id="_Path_3" class="st0" d="M371.3 128.6c-4.2 5-11.7 5.7-16.8 1.5-5-4.2-5.7-11.7-1.5-16.8.7-.8 1.5-1.5 2.4-2.1-16.7-8.6-37.2-2.1-45.8 14.6s-2.1 37.2 14.6 45.8c16.7 8.6 37.2 2.1 45.8-14.6 4.5-8.8 5-19.2 1.3-28.4z"/><g id="_Group_3"><path class="st0" d="M350.1 255.7c-4 0-7.3-3.2-7.3-7.3 0-2.4 1.2-4.6 3.1-6 1.3-.9 32.8-22.4 85.5-22.4 11.3 0 22.7 1 33.8 2.9 3.9.7 6.6 4.5 5.8 8.5-.6 3.4-3.6 5.9-7 6h-1.2c-10.3-1.7-20.7-2.6-31.1-2.6-48.4 0-77.5 19.5-77.5 19.7-1.1.8-2.6 1.2-4.1 1.2z"/><path id="_Path_4" class="st0" d="M350.1 253.9c-3 0-5.5-2.4-5.5-5.5 0-1.8.9-3.5 2.4-4.5 1.8-1.3 46.1-31.2 118-19.2 2.9.7 4.7 3.7 4 6.6-.6 2.6-3.1 4.4-5.8 4.2-67.6-11.3-109.6 17.1-110 17.4-.9.6-2 1-3.1 1z"/><path class="st0" d="M471.7 274.6c-1 0-1.9-.2-2.8-.5-21.6-9.2-44.9-14-68.4-14.1-3.7 0-7.1 0-10.2.4-10.6.5-21.1 2.6-31.2 6-3.7 1.5-8-.3-9.4-4.1-1.5-3.7.3-8 4.1-9.4 15.1-5.1 31-7.5 46.9-7.1 25.4.2 50.5 5.4 73.8 15.3 3.7 1.5 5.5 5.8 4 9.5-1.1 2.8-3.8 4.6-6.8 4.5v-.5z"/><path id="_Path_5" class="st0" d="M471.7 272.9c-.7 0-1.4-.1-2.1-.4-25.1-10.7-52.2-15.4-79.4-13.9-10.8.5-21.5 2.5-31.7 6-2.8 1.1-6-.3-7.1-3.1-1.1-2.8.3-6 3.1-7.1 2.1-.8 52-20 119.2 8 2.8 1.2 4.1 4.4 3 7.2-.8 2-2.8 3.4-5.1 3.4l.1-.1z"/></g><g id="_Group_4"><path class="st0" d="M161.9 255.7c-1.5 0-2.9-.5-4.1-1.3-23.5-13.5-50.3-20.3-77.5-19.7-10.4 0-20.7.9-30.9 2.6h-1.2c-4-.1-7.2-3.4-7.2-7.4.1-3.5 2.6-6.4 6-7 11.2-1.9 22.5-2.8 33.8-2.9 52.7 0 84.2 21.4 85.5 22.4 3.3 2.3 4.1 6.8 1.8 10.1-1.4 1.9-3.6 3.1-6 3.1l-.2.1z"/><path id="_Path_6" class="st0" d="M161.9 253.9c-1.1 0-2.2-.3-3.1-1-.4 0-42.7-28.7-110-17.4-2.9.7-5.9-1.1-6.6-4-.7-2.9 1.1-5.9 4-6.6.3-.1.5-.1.8-.1 72-11.9 116.2 17.9 118 19.2 2.5 1.7 3.1 5.1 1.4 7.6-1 1.5-2.7 2.4-4.5 2.4v-.1z"/><path class="st0" d="M40.3 274.6c-4 0-7.3-3.2-7.3-7.2 0-3 1.8-5.7 4.5-6.8 23.4-9.8 48.5-14.9 73.8-15 15.9-.3 31.8 2.1 46.8 7.3 3.7 1.5 5.6 5.7 4.1 9.4s-5.7 5.6-9.4 4.1c-13.5-4.3-27.6-6.3-41.7-6-23.4.1-46.5 4.9-68.1 14.1-.9.2-1.8.3-2.7.1z"/><path id="_Path_7" class="st0" d="M40.3 272.9c-3 0-5.5-2.5-5.5-5.5 0-2.2 1.3-4.2 3.4-5.1 67.4-28 117.2-8.8 119.2-8 2.8 1.1 4.2 4.3 3.1 7.1s-4.3 4.2-7.1 3.1c-.7 0-48.1-18.2-111.1 7.9-.6.3-1.3.4-2 .5z"/></g></svg>