<?xml version="1.0" encoding="utf-8"?>
<!-- Generator: Adobe Illustrator 21.1.0, SVG Export Plug-In . SVG Version: 6.00 Build 0)  -->
<svg version="1.1" id="Layer_1" xmlns="http://www.w3.org/2000/svg" xmlns:xlink="http://www.w3.org/1999/xlink" x="0px" y="0px"
	 viewBox="0 0 334.7 98.7" style="enable-background:new 0 0 334.7 98.7;" xml:space="preserve">
<style type="text/css">
	.st0{fill:url(#SVGID_1_);}
	.st1{fill:#FFFFFF;}
	.st2{fill:url(#SVGID_2_);}
	.st3{fill:url(#SVGID_3_);}
	.st4{fill:url(#SVGID_4_);}
	.st5{fill:url(#_Path__1_);}
	.st6{fill:url(#SVGID_5_);}
	.st7{fill:url(#_Path_2_1_);}
	.st8{fill:url(#SVGID_6_);}
	.st9{fill:url(#_Path_3_1_);}
	.st10{fill:url(#SVGID_7_);}
	.st11{fill:url(#_Path_4_1_);}
</style>
<title>Goalify logo finalWorking file</title>
<linearGradient id="SVGID_1_" gradientUnits="userSpaceOnUse" x1="17.6909" y1="669.683" x2="77.7309" y2="669.683" gradientTransform="matrix(1 0 0 1 0 -620)">
	<stop  offset="0" style="stop-color:#C82890"/>
	<stop  offset="0.51" style="stop-color:#E92256"/>
	<stop  offset="1" style="stop-color:#EF4823"/>
</linearGradient>
<path class="st0" d="M77.5,37v-1.6c0-0.3-0.1-0.6-0.2-0.9c0.8-3.1,0.7-6.4-0.4-9.4c-0.3-1-0.5-1.9-0.6-2.3c0.3-7.5,0.2-13.9,0.2-14
	c0-1.2-1-2.1-2.1-2c-0.1,0-0.2,0-0.3,0c-4.5,0.9-8.7,2.9-12.2,5.9c-8.8-4.6-19.3-4.6-28.1,0.1c-3.5-3.1-7.7-5.1-12.3-6
	c-1.1-0.2-2.2,0.5-2.5,1.7c0,0.1,0,0.2,0,0.3s-0.1,6.8,0.2,14.3c-0.5,1.5-0.9,3.2-1.1,4.8c-0.4,2.1-0.3,4.3,0.3,6.5
	c-0.2,0.3-0.3,0.7-0.3,1c0,0.5,0,1.1,0,1.6s0,1.2,0,1.8v0.3c0,2.5,0.3,5.1,1,7.5c7.4,41.5,55.7,45.8,56.3,45.8l2.4,0.2V41.5
	c0.1-0.8,0.1-1.6,0.1-2.3S77.5,37.7,77.5,37z"/>
<path class="st1" d="M23,11.6c2.4,0.7,4.6,1.9,6.5,3.3c-2.4,0.7-4.7,1.9-6.5,3.6C23,15.7,23,13.2,23,11.6z"/>
<path class="st1" d="M72.2,18.2c-1.9-1.6-4-2.8-6.4-3.4c2-1.4,4.1-2.6,6.5-3.3C72.2,13.2,72.2,15.5,72.2,18.2z"/>
<path class="st1" d="M47.7,69c3.1,0,6.2-0.5,9.2-1.4c0.4,4.7,3,13.4,16.2,18.9V88c-7.1-1.1-30.6-6-43-24.7C35.2,67,41.4,69,47.7,69z
	"/>
<path class="st1" d="M61.6,65.6c4.7-2.5,8.6-6.2,11.4-10.7v26.6C61.4,75.9,61.4,67.6,61.6,65.6z"/>
<path class="st1" d="M47.7,64.8C37,64.8,27.3,58.1,23.6,48c-0.4-2-0.8-3.9-1-5.9c5.5,5.4,14.1,6.1,20.5,1.6l3,5.2
	c0.5,0.9,1.7,1.2,2.6,0.7c0.3-0.2,0.5-0.4,0.7-0.7l3-5.2c6.4,4.5,15.2,3.7,20.7-1.9v1.4C71.1,55.7,60.3,64.8,47.7,64.8z"/>
<path class="st1" d="M50.4,41l-2.6,4.5l-2.6-4.6c1-1.1,1.8-2.3,2.6-3.6C48.5,38.6,49.4,39.8,50.4,41z"/>
<path class="st1" d="M61.6,42C55.2,42,50,36.8,50,30.4s5.2-11.6,11.6-11.6S73.2,24,73.2,30.4l0,0C73.2,36.8,68,42,61.6,42z"/>
<path class="st1" d="M33.8,18.9c6.4,0,11.6,5.2,11.6,11.6S40.3,42,33.9,42s-11.6-5.2-11.6-11.6l0,0C22.3,24.1,27.5,18.9,33.8,18.9z"
	/>
<path class="st1" d="M47.7,22.2c-2-3.4-5.2-5.9-8.9-7.1c5.7-2.1,12-2.1,17.8,0C52.9,16.3,49.7,18.8,47.7,22.2z"/>
<linearGradient id="SVGID_2_" gradientUnits="userSpaceOnUse" x1="27.1463" y1="650.5" x2="40.5663" y2="650.5" gradientTransform="matrix(1 0 0 1 0 -620)">
	<stop  offset="0" style="stop-color:#C82890"/>
	<stop  offset="0.51" style="stop-color:#E92256"/>
	<stop  offset="1" style="stop-color:#EF4823"/>
</linearGradient>
<path class="st2" d="M33.8,37.2c3.7-0.1,6.6-3.3,6.4-7c-0.1-3.5-2.9-6.3-6.4-6.4c-1.1,0-2.1,0.3-3.1,0.8L29,25.5l1.6,0.9
	c0.4,0.4,0.4,1,0.1,1.4c-0.4,0.4-1,0.4-1.4,0.1l-1-1.6L27.6,28c-1.4,3.4,0.3,7.3,3.7,8.7C32.1,37,33,37.2,33.8,37.2L33.8,37.2z"/>
<linearGradient id="SVGID_3_" gradientUnits="userSpaceOnUse" x1="54.9" y1="650.4" x2="68.32" y2="650.4" gradientTransform="matrix(1 0 0 1 0 -620)">
	<stop  offset="0" style="stop-color:#C82890"/>
	<stop  offset="0.51" style="stop-color:#E92256"/>
	<stop  offset="1" style="stop-color:#EF4823"/>
</linearGradient>
<path class="st3" d="M67.1,26.2L66,27.8c-0.4,0.4-1,0.3-1.4-0.1s-0.3-1,0.1-1.4l0,0l1.7-0.9l-1.7-0.9c-1-0.5-2-0.8-3.1-0.8
	c-3.7,0-6.7,3-6.7,6.7s3,6.7,6.7,6.7c3.7,0,6.7-3,6.7-6.7c0-0.9-0.2-1.7-0.5-2.5L67.1,26.2z"/>
<g id="_Group_">
	
		<linearGradient id="SVGID_4_" gradientUnits="userSpaceOnUse" x1="62.1" y1="666.6" x2="83.68" y2="666.6" gradientTransform="matrix(1 0 0 1 0 -620)">
		<stop  offset="0" style="stop-color:#C82890"/>
		<stop  offset="0.51" style="stop-color:#E92256"/>
		<stop  offset="1" style="stop-color:#EF4823"/>
	</linearGradient>
	<path class="st4" d="M63.3,49.6c-0.7,0-1.2-0.5-1.2-1.2c0-0.4,0.2-0.8,0.5-1c0.2-0.2,5.5-3.8,14.3-3.8c1.9,0,3.8,0.2,5.7,0.5
		c0.7,0.1,1.1,0.8,1,1.4c-0.1,0.6-0.6,1-1.2,1h-0.2c-1.7-0.3-3.5-0.4-5.2-0.4c-8.1,0-13,3.3-13,3.3C63.8,49.6,63.6,49.6,63.3,49.6z"
		/>
	
		<linearGradient id="_Path__1_" gradientUnits="userSpaceOnUse" x1="62.4" y1="666.6143" x2="83.38" y2="666.6143" gradientTransform="matrix(1 0 0 1 0 -620)">
		<stop  offset="0" style="stop-color:#C82890"/>
		<stop  offset="0.51" style="stop-color:#E92256"/>
		<stop  offset="1" style="stop-color:#EF4823"/>
	</linearGradient>
	<path id="_Path_" class="st5" d="M63.3,49.3c-0.5,0-0.9-0.4-0.9-0.9c0-0.3,0.1-0.6,0.4-0.8c0.3-0.2,7.7-5.2,19.8-3.2
		c0.5,0.1,0.8,0.6,0.7,1.1c-0.1,0.4-0.5,0.7-1,0.7c-11.3-1.9-18.4,2.9-18.5,2.9C63.7,49.3,63.5,49.3,63.3,49.3z"/>
	
		<linearGradient id="SVGID_5_" gradientUnits="userSpaceOnUse" x1="63.1887" y1="670.3521" x2="84.9705" y2="670.3521" gradientTransform="matrix(1 0 0 1 0 -620)">
		<stop  offset="0" style="stop-color:#C82890"/>
		<stop  offset="0.51" style="stop-color:#E92256"/>
		<stop  offset="1" style="stop-color:#EF4823"/>
	</linearGradient>
	<path class="st6" d="M83.8,52.8c-0.2,0-0.3,0-0.5-0.1c-3.6-1.5-7.5-2.3-11.5-2.4c-0.6,0-1.2,0-1.7,0.1c-1.8,0.1-3.5,0.4-5.2,1
		c-0.6,0.2-1.3-0.1-1.6-0.7c-0.2-0.6,0.1-1.3,0.7-1.6c2.5-0.9,5.2-1.3,7.9-1.2c4.3,0,8.5,0.9,12.4,2.6c0.6,0.3,0.9,1,0.7,1.6
		C84.7,52.6,84.2,52.9,83.8,52.8L83.8,52.8z"/>
	
		<linearGradient id="_Path_2_1_" gradientUnits="userSpaceOnUse" x1="63.4896" y1="670.3407" x2="84.6429" y2="670.3407" gradientTransform="matrix(1 0 0 1 0 -620)">
		<stop  offset="0" style="stop-color:#C82890"/>
		<stop  offset="0.51" style="stop-color:#E92256"/>
		<stop  offset="1" style="stop-color:#EF4823"/>
	</linearGradient>
	<path id="_Path_2" class="st7" d="M83.8,52.5c-0.1,0-0.2,0-0.3-0.1c-4.2-1.8-8.8-2.6-13.3-2.3c-1.8,0.1-3.6,0.4-5.3,1
		c-0.5,0.2-1,0-1.2-0.5s0-1,0.5-1.2c0.3-0.1,8.7-3.4,20,1.3c0.5,0.2,0.7,0.7,0.5,1.2C84.4,52.3,84.1,52.5,83.8,52.5L83.8,52.5z"/>
</g>
<g id="_Group_2">
	
		<linearGradient id="SVGID_6_" gradientUnits="userSpaceOnUse" x1="11.4" y1="666.6" x2="32.98" y2="666.6" gradientTransform="matrix(1 0 0 1 0 -620)">
		<stop  offset="0" style="stop-color:#C82890"/>
		<stop  offset="0.51" style="stop-color:#E92256"/>
		<stop  offset="1" style="stop-color:#EF4823"/>
	</linearGradient>
	<path class="st8" d="M31.8,49.6c-0.2,0-0.5-0.1-0.7-0.2c-4-2.3-8.4-3.4-13-3.3c-1.7,0-3.5,0.2-5.2,0.4h-0.2c-0.7,0-1.2-0.6-1.2-1.2
		c0-0.6,0.4-1.1,1-1.2c1.9-0.3,3.8-0.5,5.7-0.5c8.8,0,14.1,3.6,14.4,3.8c0.6,0.4,0.7,1.1,0.3,1.7C32.6,49.4,32.2,49.6,31.8,49.6
		L31.8,49.6z"/>
	
		<linearGradient id="_Path_3_1_" gradientUnits="userSpaceOnUse" x1="11.7" y1="666.6274" x2="32.68" y2="666.6274" gradientTransform="matrix(1 0 0 1 0 -620)">
		<stop  offset="0" style="stop-color:#C82890"/>
		<stop  offset="0.51" style="stop-color:#E92256"/>
		<stop  offset="1" style="stop-color:#EF4823"/>
	</linearGradient>
	<path id="_Path_3" class="st9" d="M31.8,49.3c-0.2,0-0.4-0.1-0.5-0.2l0,0c-0.1,0-7.2-4.8-18.5-2.9c-0.5,0-1-0.3-1-0.8
		s0.3-0.9,0.7-1c12.1-2,19.5,3,19.8,3.2c0.4,0.3,0.5,0.9,0.2,1.3C32.4,49.2,32.1,49.4,31.8,49.3L31.8,49.3z"/>
	
		<linearGradient id="SVGID_7_" gradientUnits="userSpaceOnUse" x1="10.1198" y1="670.3437" x2="31.9013" y2="670.3437" gradientTransform="matrix(1 0 0 1 0 -620)">
		<stop  offset="0" style="stop-color:#C82890"/>
		<stop  offset="0.51" style="stop-color:#E92256"/>
		<stop  offset="1" style="stop-color:#EF4823"/>
	</linearGradient>
	<path class="st10" d="M11.4,52.8c-0.7,0-1.2-0.5-1.2-1.2c0-0.5,0.3-1,0.8-1.1c3.9-1.7,8.1-2.5,12.4-2.6c2.7-0.1,5.3,0.4,7.9,1.2
		c0.6,0.2,0.9,1,0.7,1.6s-1,0.9-1.6,0.7c-2.3-0.7-4.6-1.1-7-1c-3.9,0-7.8,0.8-11.4,2.4C11.7,52.8,11.5,52.8,11.4,52.8z"/>
	
		<linearGradient id="_Path_4_1_" gradientUnits="userSpaceOnUse" x1="10.432" y1="670.3755" x2="31.6086" y2="670.3755" gradientTransform="matrix(1 0 0 1 0 -620)">
		<stop  offset="0" style="stop-color:#C82890"/>
		<stop  offset="0.51" style="stop-color:#E92256"/>
		<stop  offset="1" style="stop-color:#EF4823"/>
	</linearGradient>
	<path id="_Path_4" class="st11" d="M11.4,52.5c-0.5,0-0.9-0.4-0.9-0.9c0-0.4,0.2-0.7,0.6-0.8c11.3-4.7,19.7-1.5,20-1.3
		c0.5,0.2,0.7,0.7,0.5,1.2s-0.7,0.7-1.2,0.5c-0.1,0-8.1-3-18.6,1.3C11.6,52.5,11.5,52.5,11.4,52.5z"/>
</g>
<g>
	<g>
		<path class="st1" d="M98.1,31c0-8.7,6.6-14.1,14.8-14.1c4.8-0.2,9.3,2.4,11.7,6.6l-5.9,3.1c-1.2-2.1-3.4-3.4-5.8-3.5
			c-4.2,0-7.6,3.3-7.6,7.5c0,0.1,0,0.3,0,0.4c-0.2,4.2,3,7.7,7.2,7.9c0.1,0,0.3,0,0.4,0c1.8,0,3.5-0.6,5-1.6v-2.1h-6.1V29H125v10.8
			c-3,3.4-7.5,5.4-12.1,5.3C104.7,45.1,98.1,39.7,98.1,31z"/>
		<path class="st1" d="M127.5,34.7c0-5.6,4-10.3,10.7-10.3S149,29.2,149,34.7s-4,10.4-10.8,10.4S127.5,40.3,127.5,34.7z M142.6,34.7
			c0-2.6-1.6-4.8-4.3-4.8s-4.3,2.2-4.3,4.8s1.5,4.8,4.3,4.8S142.6,37.4,142.6,34.7L142.6,34.7z"/>
		<path class="st1" d="M164,44.6v-2c-1.6,1.6-3.8,2.5-6.1,2.5c-3,0-6.8-2-6.8-6.5c0-4.8,3.8-6.3,6.8-6.3c2.6,0,4.9,0.8,6.1,2.3v-2.3
			c0-1.7-1.5-2.9-4-2.9c-2.1,0-4,0.8-5.6,2.1l-2.2-4c2.5-2,5.7-3.1,8.9-3.1c4.7,0,9.2,1.8,9.2,7.9v12.4L164,44.6L164,44.6z
			 M164,39.5v-1.7c-0.9-1-2.2-1.5-3.5-1.4c-1.7,0-3.1,0.7-3.1,2.3s1.5,2.3,3.1,2.3C161.8,41,163.1,40.5,164,39.5z"/>
		<path class="st1" d="M174.9,44.6V17.3h6.3v27.2L174.9,44.6L174.9,44.6z"/>
		<path class="st1" d="M185.3,19.5c0-2,1.7-3.6,3.6-3.6c2,0,3.6,1.7,3.6,3.6c0,2-1.6,3.6-3.6,3.6C186.9,23.2,185.3,21.6,185.3,19.5
			C185.3,19.6,185.3,19.5,185.3,19.5z M185.8,44.6V24.9h6.2v19.7L185.8,44.6z"/>
		<path class="st1" d="M198,44.6V30.3h-3.3v-5.5h3.3v-1c-0.1-3.7,2.7-6.8,6.4-6.9c0.2,0,0.4,0,0.6,0c2.1-0.1,4.1,0.6,5.7,2l-2.3,3.6
			c-0.5-0.6-1.2-0.8-2-0.8c-1.1-0.1-2.1,0.8-2.2,1.9c0,0.1,0,0.2,0,0.2v1h4v5.5h-4v14.2L198,44.6L198,44.6z"/>
		<path class="st1" d="M211.4,46.7c0.5,0.2,1,0.4,1.6,0.4c1.4,0,2.3-0.3,2.7-1.1l0.4-1.1l-7.9-20h6.6l4.4,12.5l4.5-12.5h6.7
			l-8.9,22.6c-1.6,4.2-4.6,5.1-8.3,5.2c-0.9,0-1.8-0.1-2.7-0.3L211.4,46.7z"/>
		<path class="st1" d="M241.5,31c0-8.4,6.4-14.1,14.8-14.1c5.1-0.2,9.8,2.7,11.9,7.3l-6,2.9c-1-2.4-3.3-3.9-5.8-4
			c-4.2,0-7.6,3.3-7.6,7.5c0,0.1,0,0.3,0,0.4c-0.2,4.2,3,7.7,7.2,7.9c0.1,0,0.3,0,0.4,0c2.6-0.1,4.8-1.6,5.8-4l6,2.9
			c-2.1,4.6-6.8,7.5-11.9,7.3C247.9,45.1,241.5,39.4,241.5,31z"/>
		<path class="st1" d="M284.4,44.6V33.1c0-2.4-1.3-3.2-3.3-3.2c-1.5,0-2.9,0.7-3.8,1.9v12.8H271V17.3h6.3v9.9c1.7-1.9,4.2-3,6.8-2.9
			c4.5,0,6.5,2.5,6.5,6.2v14h-6.2V44.6z"/>
		<path class="st1" d="M307,44.6v-2c-1.6,1.6-3.8,2.5-6.1,2.5c-3,0-6.8-2-6.8-6.5c0-4.8,3.8-6.3,6.8-6.3c2.6,0,4.9,0.8,6.1,2.3v-2.3
			c0-1.7-1.5-2.9-4-2.9c-2.1,0-4,0.8-5.6,2.1l-2.2-4c2.5-2,5.7-3.1,8.9-3c4.7,0,9.2,1.8,9.2,7.9v12.3L307,44.6L307,44.6z M307,39.5
			v-1.8c-0.9-1-2.2-1.5-3.5-1.4c-1.7,0-3.1,0.7-3.1,2.3s1.5,2.3,3.1,2.3C304.8,41,306.1,40.5,307,39.5L307,39.5z"/>
		<path class="st1" d="M319.1,39.3v-8.9h-3.3v-5.5h3.3v-5.4h6.2v5.4h4v5.5h-4v7.1c-0.1,1,0.6,1.9,1.6,2c0.1,0,0.1,0,0.2,0
			c0.6,0,1.1-0.1,1.6-0.5l1.3,4.8c-0.8,0.7-2.3,1.3-4.7,1.3C321.3,45.1,319.1,43.1,319.1,39.3z"/>
	</g>
	<g>
		<path class="st1" d="M98.5,82.4V60.7h10.7c3.9,0,6.2,2.5,6.2,5.6c0,2.7-1.9,4.5-3.7,4.9c2.3,0.4,4.1,2.7,4.1,5.4
			c0,3.3-2.3,5.8-6.4,5.8H98.5z M111.5,66.9c0-1.6-1-2.9-3.1-2.9h-6v5.6h6C110.4,69.6,111.5,68.6,111.5,66.9z M111.9,76
			c0-1.6-1.2-2.9-3.3-2.9h-6.2v6h6.2C110.7,79.1,111.9,77.8,111.9,76z"/>
		<path class="st1" d="M118.5,74.5c0-4.5,3.3-8.2,8-8.2s7.6,3.5,7.6,8.4v0.8h-11.9c0.2,2.3,2.1,4.3,4.9,4.3c1.4,0,3.3-0.6,4.5-1.6
			l1.6,2.3c-1.6,1.4-3.9,2.3-6.4,2.3C122,82.8,118.5,79.5,118.5,74.5z M126.5,69.2c-2.9,0-4.3,2.3-4.3,4.1h8.9
			C130.8,71.4,129.6,69.2,126.5,69.2z"/>
		<path class="st1" d="M138.3,78.6v-9.1h-2.7v-2.9h2.7v-4.3h3.5v4.3h3.1v2.9h-3.1v8.2c0,1,0.6,1.9,1.4,1.9c0.6,0,1.2-0.2,1.4-0.6
			l0.8,2.5c-0.6,0.6-1.6,1-3.3,1C139.7,82.8,138.3,81.3,138.3,78.6z"/>
		<path class="st1" d="M157.4,82.4v-1.6c-1.2,1.2-2.9,2.1-5.1,2.1c-2.5,0-5.4-1.6-5.4-5.1s2.9-5.1,5.4-5.1c2.1,0,3.9,0.6,5.1,2.1
			v-2.3c0-1.9-1.4-2.9-3.7-2.9c-1.9,0-3.3,0.6-4.7,2.1l-1.4-2.3c1.9-1.6,4.1-2.5,6.6-2.5c3.5,0,6.6,1.4,6.6,5.8v10.3h-3.3V82.4z
			 M157.4,78.9v-2.3c-0.8-1-2.3-1.6-3.7-1.6c-1.9,0-3.3,1-3.3,2.9c0,1.6,1.4,2.9,3.3,2.9C155.3,80.5,156.8,79.9,157.4,78.9z"/>
	</g>
</g>
</svg>
